<svg width="34" height="34" viewBox="0 0 34 34" fill="none" xmlns="http://www.w3.org/2000/svg">
<path fill-rule="evenodd" clip-rule="evenodd" d="M1.98787 16.9999C1.98787 13.0185 3.5695 9.20007 6.38482 6.38474C9.20014 3.56942 13.0185 1.98779 17 1.98779C20.9815 1.98779 24.7999 3.56942 27.6152 6.38474C30.4305 9.20007 32.0121 13.0185 32.0121 16.9999C32.0121 20.9814 30.4305 24.7998 27.6152 27.6151C24.7999 30.4304 20.9815 32.0121 17 32.0121C13.0185 32.0121 9.20014 30.4304 6.38482 27.6151C3.5695 24.7998 1.98787 20.9814 1.98787 16.9999ZM17 4.14113C14.5076 4.14121 12.069 4.86563 9.98073 6.22624C7.89249 7.58686 6.24467 9.52503 5.23775 11.805C4.23082 14.0849 3.90818 16.6083 4.30908 19.0683C4.70998 21.5282 5.81714 23.8186 7.49587 25.6609C8.51487 24.0644 9.91992 22.7506 11.5811 21.841C13.2423 20.9313 15.1061 20.4552 17 20.4566C18.8939 20.4552 20.7577 20.9313 22.4189 21.841C24.0801 22.7506 25.4851 24.0644 26.5041 25.6609C28.1829 23.8186 29.29 21.5282 29.6909 19.0683C30.0918 16.6083 29.7692 14.0849 28.7623 11.805C27.7553 9.52503 26.1075 7.58686 24.0193 6.22624C21.931 4.86563 19.4924 4.14121 17 4.14113ZM24.8925 27.1523C24.091 25.7695 22.9397 24.6218 21.5544 23.8245C20.1691 23.0272 18.5984 22.6083 17 22.6099C15.4016 22.6083 13.8309 23.0272 12.4456 23.8245C11.0603 24.6218 9.90905 25.7695 9.10747 27.1523C11.3624 28.9102 14.1408 29.8629 17 29.8587C19.9739 29.8587 22.712 28.8478 24.8925 27.1523ZM11.6733 14.7446C11.6733 13.3319 12.2345 11.977 13.2335 10.9781C14.2324 9.97913 15.5873 9.41793 17 9.41793C18.4127 9.41793 19.7676 9.97913 20.7665 10.9781C21.7655 11.977 22.3267 13.3319 22.3267 14.7446C22.3267 16.1573 21.7655 17.5122 20.7665 18.5111C19.7676 19.5101 18.4127 20.0713 17 20.0713C15.5873 20.0713 14.2324 19.5101 13.2335 18.5111C12.2345 17.5122 11.6733 16.1573 11.6733 14.7446ZM17 11.5713C16.5833 11.5713 16.1706 11.6533 15.7856 11.8128C15.4006 11.9723 15.0508 12.206 14.7561 12.5007C14.4614 12.7954 14.2277 13.1452 14.0682 13.5302C13.9087 13.9152 13.8267 14.3279 13.8267 14.7446C13.8267 15.1613 13.9087 15.574 14.0682 15.959C14.2277 16.344 14.4614 16.6938 14.7561 16.9885C15.0508 17.2831 15.4006 17.5169 15.7856 17.6764C16.1706 17.8358 16.5833 17.9179 17 17.9179C17.8416 17.9179 18.6488 17.5836 19.2439 16.9885C19.839 16.3934 20.1733 15.5862 20.1733 14.7446C20.1733 13.903 19.839 13.0958 19.2439 12.5007C18.6488 11.9056 17.8416 11.5713 17 11.5713Z" fill="white"/>
</svg>
