<svg width="34" height="34" viewBox="0 0 34 34" fill="none" xmlns="http://www.w3.org/2000/svg">
<path d="M17 18.417C19.3472 18.417 21.25 16.5142 21.25 14.167C21.25 11.8198 19.3472 9.91699 17 9.91699C14.6528 9.91699 12.75 11.8198 12.75 14.167C12.75 16.5142 14.6528 18.417 17 18.417Z" stroke="white" stroke-width="2" stroke-linecap="round" stroke-linejoin="round"/>
<path d="M17 2.8335C13.9942 2.8335 11.1115 4.02754 8.98613 6.15295C6.86072 8.27837 5.66667 11.161 5.66667 14.1668C5.66667 16.8472 6.23617 18.601 7.79167 20.5418L17 31.1668L26.2083 20.5418C27.7638 18.601 28.3333 16.8472 28.3333 14.1668C28.3333 11.161 27.1393 8.27837 25.0139 6.15295C22.8885 4.02754 20.0058 2.8335 17 2.8335Z" stroke="white" stroke-width="2" stroke-linecap="round" stroke-linejoin="round"/>
</svg>
