<svg width="34" height="34" viewBox="0 0 34 34" fill="none" xmlns="http://www.w3.org/2000/svg">
<path d="M5.66666 28.3332C4.88749 28.3332 4.22072 28.056 3.66633 27.5016C3.11194 26.9472 2.83427 26.2799 2.83333 25.4998V8.49984C2.83333 7.72067 3.11099 7.05389 3.66633 6.4995C4.22166 5.94511 4.88844 5.66745 5.66666 5.6665H28.3333C29.1125 5.6665 29.7797 5.94417 30.3351 6.4995C30.8904 7.05484 31.1676 7.72162 31.1667 8.49984V25.4998C31.1667 26.279 30.8895 26.9463 30.3351 27.5016C29.7807 28.0569 29.1134 28.3341 28.3333 28.3332H5.66666ZM17 18.4165L5.66666 11.3332V25.4998H28.3333V11.3332L17 18.4165ZM17 15.5832L28.3333 8.49984H5.66666L17 15.5832ZM5.66666 11.3332V8.49984V25.4998V11.3332Z" fill="white"/>
</svg>
