<svg width="34" height="34" viewBox="0 0 34 34" fill="none" xmlns="http://www.w3.org/2000/svg">
<path d="M11.3333 4.25C12.0417 4.25 14.875 10.625 14.875 11.3333C14.875 12.75 12.75 14.1667 12.0417 15.5833C11.3333 17 12.75 18.4167 14.1667 19.8333C14.7192 20.3858 17 22.6667 18.4167 21.9583C19.8333 21.25 21.25 19.125 22.6667 19.125C23.375 19.125 29.75 21.9583 29.75 22.6667C29.75 25.5 27.625 27.625 25.5 28.3333C23.375 29.0417 21.9583 29.0417 19.125 28.3333C16.2917 27.625 14.1667 26.9167 10.625 23.375C7.08334 19.8333 6.37501 17.7083 5.66667 14.875C4.95834 12.0417 4.95834 10.625 5.66667 8.5C6.37501 6.375 8.50001 4.25 11.3333 4.25Z" stroke="white" stroke-width="2" stroke-linecap="round" stroke-linejoin="round"/>
</svg>
