<svg width="61" height="61" viewBox="0 0 61 61" fill="none" xmlns="http://www.w3.org/2000/svg">
<path d="M4.3775 4.3775C0.125001 8.6705 0.125 15.5353 0.125 29.285V31.715C0.125 45.4445 0.125001 52.3092 4.3775 56.6225C8.6705 60.875 15.5353 60.875 29.285 60.875H31.715C45.4445 60.875 52.3092 60.875 56.6225 56.6225C60.875 52.3295 60.875 45.4647 60.875 31.715V29.285C60.875 15.5555 60.875 8.69075 56.6225 4.3775C52.3295 0.125001 45.4647 0.125 31.715 0.125H29.285C15.5555 0.125 8.69075 0.125001 4.3775 4.3775ZM10.3715 18.6132H17.3375C17.5603 30.1962 22.6632 35.0967 26.7133 36.1092V18.6132H33.254V28.5965C37.2433 28.1712 41.4552 23.615 42.8727 18.593H49.3932C48.8612 21.1925 47.799 23.6544 46.2729 25.825C44.7469 27.9956 42.7898 29.8283 40.5238 31.2087C43.0531 32.4672 45.2868 34.2477 47.0775 36.4328C48.8681 38.6179 50.1751 41.1579 50.912 43.8853H43.7233C42.1842 39.086 38.3368 35.36 33.254 34.8537V43.8853H32.444C18.593 43.8853 10.6955 34.4082 10.3715 18.6132Z" fill="black"/>
</svg>
