<svg width="54" height="54" viewBox="0 0 54 54" fill="none" xmlns="http://www.w3.org/2000/svg">
<path d="M18 6.75C19.125 6.75 23.625 16.875 23.625 18C23.625 20.25 20.25 22.5 19.125 24.75C18 27 20.25 29.25 22.5 31.5C23.3775 32.3775 27 36 29.25 34.875C31.5 33.75 33.75 30.375 36 30.375C37.125 30.375 47.25 34.875 47.25 36C47.25 40.5 43.875 43.875 40.5 45C37.125 46.125 34.875 46.125 30.375 45C25.875 43.875 22.5 42.75 16.875 37.125C11.25 31.5 10.125 28.125 9 23.625C7.875 19.125 7.875 16.875 9 13.5C10.125 10.125 13.5 6.75 18 6.75Z" stroke="white" stroke-width="3" stroke-linecap="round" stroke-linejoin="round"/>
</svg>
