<svg width="54" height="54" viewBox="0 0 54 54" fill="none" xmlns="http://www.w3.org/2000/svg">
<path d="M24.75 38.25L29.25 42.75C29.6932 43.1932 30.2194 43.5448 30.7985 43.7847C31.3775 44.0245 31.9982 44.148 32.625 44.148C33.2518 44.148 33.8725 44.0245 34.4515 43.7847C35.0306 43.5448 35.5568 43.1932 36 42.75C36.4432 42.3068 36.7948 41.7806 37.0347 41.2015C37.2745 40.6225 37.398 40.0018 37.398 39.375C37.398 38.7482 37.2745 38.1275 37.0347 37.5485C36.7948 36.9694 36.4432 36.4432 36 36" stroke="white" stroke-width="3" stroke-linecap="round" stroke-linejoin="round"/>
<path d="M31.5 31.5L37.125 37.125C38.0201 38.0201 39.2342 38.523 40.5 38.523C41.7659 38.523 42.9799 38.0201 43.875 37.125C44.7701 36.2299 45.273 35.0159 45.273 33.75C45.273 32.4841 44.7701 31.2701 43.875 30.375L35.145 21.645C33.8794 20.3809 32.1638 19.6709 30.375 19.6709C28.5863 19.6709 26.8706 20.3809 25.605 21.645L23.625 23.625C22.7299 24.5201 21.5159 25.023 20.25 25.023C18.9842 25.023 17.7701 24.5201 16.875 23.625C15.9799 22.7299 15.4771 21.5159 15.4771 20.25C15.4771 18.9841 15.9799 17.7701 16.875 16.875L23.1975 10.5525C25.2501 8.50533 27.9268 7.20125 30.804 6.84669C33.6811 6.49214 36.5944 7.10737 39.0825 8.595L40.14 9.225C41.098 9.80322 42.2371 10.0038 43.335 9.7875L47.25 9" stroke="white" stroke-width="3" stroke-linecap="round" stroke-linejoin="round"/>
<path d="M47.25 6.75L49.5 31.5H45M6.75 6.75L4.5 31.5L19.125 46.125C20.0201 47.0201 21.2341 47.523 22.5 47.523C23.7659 47.523 24.9799 47.0201 25.875 46.125C26.7701 45.2299 27.273 44.0159 27.273 42.75C27.273 41.4841 26.7701 40.2701 25.875 39.375M6.75 9H24.75" stroke="white" stroke-width="3" stroke-linecap="round" stroke-linejoin="round"/>
</svg>
