<svg width="54" height="54" viewBox="0 0 54 54" fill="none" xmlns="http://www.w3.org/2000/svg">
<g clip-path="url(#clip0_2002_77)">
<path d="M27 4.5C39.4268 4.5 49.5 14.5733 49.5 27C49.5 39.4268 39.4268 49.5 27 49.5C14.5733 49.5 4.5 39.4268 4.5 27C4.5 14.5733 14.5733 4.5 27 4.5ZM27 9C22.2261 9 17.6477 10.8964 14.2721 14.2721C10.8964 17.6477 9 22.2261 9 27C9 31.7739 10.8964 36.3523 14.2721 39.7279C17.6477 43.1036 22.2261 45 27 45C31.7739 45 36.3523 43.1036 39.7279 39.7279C43.1036 36.3523 45 31.7739 45 27C45 22.2261 43.1036 17.6477 39.7279 14.2721C36.3523 10.8964 31.7739 9 27 9ZM26.9775 22.5C28.233 22.5 29.25 23.517 29.25 24.7725V36.3015C29.6789 36.5492 30.0141 36.9314 30.2037 37.389C30.3932 37.8466 30.4264 38.3539 30.2982 38.8323C30.17 39.3108 29.8876 39.7335 29.4946 40.035C29.1017 40.3365 28.6203 40.5 28.125 40.5H27.0225C26.7241 40.5 26.4286 40.4412 26.1529 40.327C25.8771 40.2128 25.6266 40.0454 25.4156 39.8344C25.2046 39.6234 25.0372 39.3729 24.923 39.0971C24.8088 38.8214 24.75 38.5259 24.75 38.2275V27C24.1533 27 23.581 26.7629 23.159 26.341C22.7371 25.919 22.5 25.3467 22.5 24.75C22.5 24.1533 22.7371 23.581 23.159 23.159C23.581 22.7371 24.1533 22.5 24.75 22.5H26.9775ZM27 15.75C27.5967 15.75 28.169 15.9871 28.591 16.409C29.0129 16.831 29.25 17.4033 29.25 18C29.25 18.5967 29.0129 19.169 28.591 19.591C28.169 20.0129 27.5967 20.25 27 20.25C26.4033 20.25 25.831 20.0129 25.409 19.591C24.9871 19.169 24.75 18.5967 24.75 18C24.75 17.4033 24.9871 16.831 25.409 16.409C25.831 15.9871 26.4033 15.75 27 15.75Z" fill="white"/>
</g>
<defs>
<clipPath id="clip0_2002_77">
<rect width="54" height="54" fill="white"/>
</clipPath>
</defs>
</svg>
