<svg width="54" height="54" viewBox="0 0 54 54" fill="none" xmlns="http://www.w3.org/2000/svg">
<path fill-rule="evenodd" clip-rule="evenodd" d="M3.15723 27C3.15723 20.6765 5.66923 14.612 10.1406 10.1406C14.612 5.6692 20.6765 3.1572 27 3.1572C33.3235 3.1572 39.388 5.6692 43.8594 10.1406C48.3308 14.612 50.8428 20.6765 50.8428 27C50.8428 33.3235 48.3308 39.388 43.8594 43.8594C39.388 48.3308 33.3235 50.8428 27 50.8428C20.6765 50.8428 14.612 48.3308 10.1406 43.8594C5.66923 39.388 3.15723 33.3235 3.15723 27ZM27 6.5772C23.0415 6.57733 19.1684 7.72787 15.8518 9.88885C12.5352 12.0498 9.91803 15.1281 8.3188 18.7492C6.71956 22.3702 6.20713 26.378 6.84386 30.285C7.48058 34.192 9.23901 37.8297 11.9052 40.7556C13.5236 38.22 15.7552 36.1334 18.3936 34.6887C21.0319 33.244 23.992 32.4878 27 32.49C30.0081 32.4878 32.9681 33.244 35.6065 34.6887C38.2449 36.1334 40.4764 38.22 42.0948 40.7556C44.761 37.8297 46.5195 34.192 47.1562 30.285C47.7929 26.378 47.2805 22.3702 45.6813 18.7492C44.082 15.1281 41.4649 12.0498 38.1483 9.88885C34.8317 7.72787 30.9585 6.57733 27 6.5772ZM39.5352 43.1244C38.2621 40.9281 36.4337 39.1053 34.2335 37.839C32.0332 36.5727 29.5386 35.9074 27 35.91C24.4614 35.9074 21.9668 36.5727 19.7666 37.839C17.5663 39.1053 15.7379 40.9281 14.4648 43.1244C18.0462 45.9163 22.459 47.4295 27 47.4228C31.7232 47.4228 36.072 45.8172 39.5352 43.1244ZM18.54 23.418C18.54 21.1743 19.4313 19.0224 21.0179 17.4359C22.6045 15.8493 24.7563 14.958 27 14.958C29.2438 14.958 31.3956 15.8493 32.9821 17.4359C34.5687 19.0224 35.46 21.1743 35.46 23.418C35.46 25.6617 34.5687 27.8136 32.9821 29.4001C31.3956 30.9867 29.2438 31.878 27 31.878C24.7563 31.878 22.6045 30.9867 21.0179 29.4001C19.4313 27.8136 18.54 25.6617 18.54 23.418ZM27 18.378C26.3382 18.378 25.6828 18.5084 25.0713 18.7616C24.4598 19.0149 23.9042 19.3862 23.4362 19.8542C22.9682 20.3222 22.597 20.8778 22.3437 21.4893C22.0904 22.1007 21.96 22.7561 21.96 23.418C21.96 24.0799 22.0904 24.7352 22.3437 25.3467C22.597 25.9582 22.9682 26.5138 23.4362 26.9818C23.9042 27.4498 24.4598 27.8211 25.0713 28.0743C25.6828 28.3276 26.3382 28.458 27 28.458C28.3367 28.458 29.6187 27.927 30.5638 26.9818C31.509 26.0366 32.04 24.7547 32.04 23.418C32.04 22.0813 31.509 20.7994 30.5638 19.8542C29.6187 18.909 28.3367 18.378 27 18.378Z" fill="white"/>
</svg>
