<svg width="49" height="49" viewBox="0 0 49 49" fill="none" xmlns="http://www.w3.org/2000/svg">
<path d="M8.16675 12.25C8.16675 11.7085 8.38185 11.1892 8.76474 10.8063C9.14763 10.4234 9.66693 10.2083 10.2084 10.2083H38.7917C39.3332 10.2083 39.8525 10.4234 40.2354 10.8063C40.6183 11.1892 40.8334 11.7085 40.8334 12.25C40.8334 12.7915 40.6183 13.3108 40.2354 13.6937C39.8525 14.0766 39.3332 14.2917 38.7917 14.2917H10.2084C9.66693 14.2917 9.14763 14.0766 8.76474 13.6937C8.38185 13.3108 8.16675 12.7915 8.16675 12.25ZM8.16675 24.5C8.16675 23.9585 8.38185 23.4392 8.76474 23.0563C9.14763 22.6734 9.66693 22.4583 10.2084 22.4583H38.7917C39.3332 22.4583 39.8525 22.6734 40.2354 23.0563C40.6183 23.4392 40.8334 23.9585 40.8334 24.5C40.8334 25.0415 40.6183 25.5608 40.2354 25.9437C39.8525 26.3266 39.3332 26.5417 38.7917 26.5417H10.2084C9.66693 26.5417 9.14763 26.3266 8.76474 25.9437C8.38185 25.5608 8.16675 25.0415 8.16675 24.5ZM10.2084 34.7083C9.66693 34.7083 9.14763 34.9234 8.76474 35.3063C8.38185 35.6892 8.16675 36.2085 8.16675 36.75C8.16675 37.2915 8.38185 37.8108 8.76474 38.1937C9.14763 38.5766 9.66693 38.7917 10.2084 38.7917H38.7917C39.3332 38.7917 39.8525 38.5766 40.2354 38.1937C40.6183 37.8108 40.8334 37.2915 40.8334 36.75C40.8334 36.2085 40.6183 35.6892 40.2354 35.3063C39.8525 34.9234 39.3332 34.7083 38.7917 34.7083H10.2084Z" fill="black"/>
</svg>
